<mxfile host="app.diagrams.net" modified="2024-07-17T19:28:23.802Z" agent="Mozilla/5.0 (X11; Linux x86_64; rv:109.0) Gecko/20100101 Firefox/115.0" etag="-ZahTAYb8IYtnXPFeLN_" version="24.7.1" type="github">
  <diagram name="Page-1" id="kdufBOK4FUfgaSmy1Mbv">
    <mxGraphModel dx="2414" dy="668" grid="1" gridSize="10" guides="1" tooltips="1" connect="1" arrows="1" fold="1" page="1" pageScale="1" pageWidth="850" pageHeight="1100" background="#FFFFFF" math="0" shadow="0">
      <root>
        <mxCell id="0" />
        <mxCell id="1" parent="0" />
        <mxCell id="0uEbpQoPDFIilGcdgPJV-9" value="&lt;h1 style=&quot;margin-top: 0px;&quot;&gt;MyTempo MINI PC&lt;br&gt;&lt;/h1&gt;&lt;p&gt;Descrição do funcionamento/configuração do Mini PC. &lt;br&gt;&lt;/p&gt;" style="text;html=1;whiteSpace=wrap;overflow=hidden;rounded=0;" vertex="1" parent="1">
          <mxGeometry x="14" y="10" width="284" height="120" as="geometry" />
        </mxCell>
        <mxCell id="0uEbpQoPDFIilGcdgPJV-23" value="" style="swimlane;startSize=0;" vertex="1" parent="1">
          <mxGeometry x="630" y="10" width="200" height="260" as="geometry">
            <mxRectangle x="135" y="172" width="50" height="44" as="alternateBounds" />
          </mxGeometry>
        </mxCell>
        <mxCell id="0uEbpQoPDFIilGcdgPJV-17" value="READER" style="label;whiteSpace=wrap;html=1;image=img/clipart/Gear_128x128.png" vertex="1" parent="0uEbpQoPDFIilGcdgPJV-23">
          <mxGeometry x="30" y="20" width="140" height="60" as="geometry" />
        </mxCell>
        <mxCell id="0uEbpQoPDFIilGcdgPJV-16" value="" style="endArrow=classic;html=1;rounded=0;curved=0;shadow=0;endSize=7;startSize=10;flowAnimation=1;" edge="1" parent="0uEbpQoPDFIilGcdgPJV-23">
          <mxGeometry width="50" height="50" relative="1" as="geometry">
            <mxPoint x="74" y="161" as="sourcePoint" />
            <mxPoint x="91" y="92" as="targetPoint" />
          </mxGeometry>
        </mxCell>
        <mxCell id="0uEbpQoPDFIilGcdgPJV-18" value="" style="endArrow=classic;html=1;rounded=0;curved=0;shadow=0;endSize=7;startSize=10;flowAnimation=1;" edge="1" parent="0uEbpQoPDFIilGcdgPJV-23">
          <mxGeometry width="50" height="50" relative="1" as="geometry">
            <mxPoint x="102" y="94" as="sourcePoint" />
            <mxPoint x="126" y="160" as="targetPoint" />
          </mxGeometry>
        </mxCell>
        <mxCell id="0uEbpQoPDFIilGcdgPJV-15" value="INTERFACE READER" style="rounded=0;whiteSpace=wrap;html=1;" vertex="1" parent="0uEbpQoPDFIilGcdgPJV-23">
          <mxGeometry x="40" y="176" width="120" height="60" as="geometry" />
        </mxCell>
        <mxCell id="0uEbpQoPDFIilGcdgPJV-24" value="MyTempo Reader API" style="text;html=1;align=center;verticalAlign=middle;whiteSpace=wrap;rounded=0;" vertex="1" parent="1">
          <mxGeometry x="503" y="40" width="127" height="30" as="geometry" />
        </mxCell>
        <mxCell id="0uEbpQoPDFIilGcdgPJV-36" value="Reader (Abstract)" style="shape=umlLifeline;perimeter=lifelinePerimeter;whiteSpace=wrap;html=1;container=1;dropTarget=0;collapsible=0;recursiveResize=0;outlineConnect=0;portConstraint=eastwest;newEdgeStyle={&quot;curved&quot;:0,&quot;rounded&quot;:0};" vertex="1" parent="1">
          <mxGeometry x="182" y="340" width="100" height="440" as="geometry" />
        </mxCell>
        <mxCell id="0uEbpQoPDFIilGcdgPJV-54" value="" style="html=1;points=[[0,0,0,0,5],[0,1,0,0,-5],[1,0,0,0,5],[1,1,0,0,-5]];perimeter=orthogonalPerimeter;outlineConnect=0;targetShapes=umlLifeline;portConstraint=eastwest;newEdgeStyle={&quot;curved&quot;:0,&quot;rounded&quot;:0};" vertex="1" parent="0uEbpQoPDFIilGcdgPJV-36">
          <mxGeometry x="45" y="140" width="10" height="80" as="geometry" />
        </mxCell>
        <mxCell id="0uEbpQoPDFIilGcdgPJV-37" value="&lt;div&gt;Process&lt;/div&gt;" style="shape=umlLifeline;perimeter=lifelinePerimeter;whiteSpace=wrap;html=1;container=1;dropTarget=0;collapsible=0;recursiveResize=0;outlineConnect=0;portConstraint=eastwest;newEdgeStyle={&quot;curved&quot;:0,&quot;rounded&quot;:0};" vertex="1" parent="1">
          <mxGeometry x="383.5" y="340" width="100" height="440" as="geometry" />
        </mxCell>
        <mxCell id="0uEbpQoPDFIilGcdgPJV-38" value="Server" style="shape=umlLifeline;perimeter=lifelinePerimeter;whiteSpace=wrap;html=1;container=1;dropTarget=0;collapsible=0;recursiveResize=0;outlineConnect=0;portConstraint=eastwest;newEdgeStyle={&quot;curved&quot;:0,&quot;rounded&quot;:0};" vertex="1" parent="1">
          <mxGeometry x="568.5" y="340" width="100" height="430" as="geometry" />
        </mxCell>
        <mxCell id="0uEbpQoPDFIilGcdgPJV-47" value="Reader (Interface)" style="shape=umlLifeline;perimeter=lifelinePerimeter;whiteSpace=wrap;html=1;container=1;dropTarget=0;collapsible=0;recursiveResize=0;outlineConnect=0;portConstraint=eastwest;newEdgeStyle={&quot;curved&quot;:0,&quot;rounded&quot;:0};" vertex="1" parent="1">
          <mxGeometry x="-20" y="340" width="100" height="440" as="geometry" />
        </mxCell>
        <mxCell id="0uEbpQoPDFIilGcdgPJV-60" value="" style="html=1;points=[[0,0,0,0,5],[0,1,0,0,-5],[1,0,0,0,5],[1,1,0,0,-5]];perimeter=orthogonalPerimeter;outlineConnect=0;targetShapes=umlLifeline;portConstraint=eastwest;newEdgeStyle={&quot;curved&quot;:0,&quot;rounded&quot;:0};" vertex="1" parent="0uEbpQoPDFIilGcdgPJV-47">
          <mxGeometry x="45" y="50" width="10" height="60" as="geometry" />
        </mxCell>
        <mxCell id="0uEbpQoPDFIilGcdgPJV-64" value="capture_tag()" style="html=1;align=left;spacingLeft=2;endArrow=block;rounded=0;edgeStyle=orthogonalEdgeStyle;curved=0;rounded=0;" edge="1" parent="0uEbpQoPDFIilGcdgPJV-47">
          <mxGeometry relative="1" as="geometry">
            <mxPoint x="55" y="65" as="sourcePoint" />
            <Array as="points">
              <mxPoint x="85" y="95" />
            </Array>
            <mxPoint x="60" y="95" as="targetPoint" />
          </mxGeometry>
        </mxCell>
        <mxCell id="0uEbpQoPDFIilGcdgPJV-67" value="" style="html=1;points=[[0,0,0,0,5],[0,1,0,0,-5],[1,0,0,0,5],[1,1,0,0,-5]];perimeter=orthogonalPerimeter;outlineConnect=0;targetShapes=umlLifeline;portConstraint=eastwest;newEdgeStyle={&quot;curved&quot;:0,&quot;rounded&quot;:0};" vertex="1" parent="0uEbpQoPDFIilGcdgPJV-47">
          <mxGeometry x="45" y="150" width="10" height="180" as="geometry" />
        </mxCell>
        <mxCell id="0uEbpQoPDFIilGcdgPJV-55" value="TagWriter.get_tags()" style="html=1;verticalAlign=bottom;endArrow=block;curved=0;rounded=0;entryX=1;entryY=0;entryDx=0;entryDy=5;" edge="1" target="0uEbpQoPDFIilGcdgPJV-54" parent="1" source="0uEbpQoPDFIilGcdgPJV-37">
          <mxGeometry relative="1" as="geometry">
            <mxPoint x="310" y="405" as="sourcePoint" />
          </mxGeometry>
        </mxCell>
        <mxCell id="0uEbpQoPDFIilGcdgPJV-68" value="tag_q.get()" style="html=1;verticalAlign=bottom;endArrow=block;curved=0;rounded=0;entryX=1;entryY=0;entryDx=0;entryDy=5;" edge="1" target="0uEbpQoPDFIilGcdgPJV-67" parent="1" source="0uEbpQoPDFIilGcdgPJV-54">
          <mxGeometry relative="1" as="geometry">
            <mxPoint x="105" y="485" as="sourcePoint" />
          </mxGeometry>
        </mxCell>
        <mxCell id="0uEbpQoPDFIilGcdgPJV-74" value="break" style="shape=umlFrame;whiteSpace=wrap;html=1;pointerEvents=0;" vertex="1" parent="1">
          <mxGeometry x="-50" y="570" width="560" height="130" as="geometry" />
        </mxCell>
        <mxCell id="0uEbpQoPDFIilGcdgPJV-75" value="[found]" style="text;align=center;fontStyle=1;verticalAlign=middle;spacingLeft=3;spacingRight=3;strokeColor=none;rotatable=0;points=[[0,0.5],[1,0.5]];portConstraint=eastwest;html=1;" vertex="1" parent="1">
          <mxGeometry x="-50" y="610" width="80" height="26" as="geometry" />
        </mxCell>
        <mxCell id="0uEbpQoPDFIilGcdgPJV-77" value="" style="html=1;points=[[0,0,0,0,5],[0,1,0,0,-5],[1,0,0,0,5],[1,1,0,0,-5]];perimeter=orthogonalPerimeter;outlineConnect=0;targetShapes=umlLifeline;portConstraint=eastwest;newEdgeStyle={&quot;curved&quot;:0,&quot;rounded&quot;:0};" vertex="1" parent="1">
          <mxGeometry x="230" y="590" width="10" height="50" as="geometry" />
        </mxCell>
        <mxCell id="0uEbpQoPDFIilGcdgPJV-78" value="self call" style="html=1;align=left;spacingLeft=2;endArrow=block;rounded=0;edgeStyle=orthogonalEdgeStyle;curved=0;rounded=0;" edge="1" parent="1">
          <mxGeometry relative="1" as="geometry">
            <mxPoint x="240" y="600" as="sourcePoint" />
            <Array as="points">
              <mxPoint x="270" y="630" />
            </Array>
            <mxPoint x="245" y="630" as="targetPoint" />
          </mxGeometry>
        </mxCell>
        <mxCell id="0uEbpQoPDFIilGcdgPJV-69" value="Tags" style="html=1;verticalAlign=bottom;endArrow=open;dashed=1;endSize=8;curved=0;rounded=0;exitX=1;exitY=1;exitDx=0;exitDy=-5;" edge="1" source="0uEbpQoPDFIilGcdgPJV-67" parent="1" target="0uEbpQoPDFIilGcdgPJV-37">
          <mxGeometry relative="1" as="geometry">
            <mxPoint x="105" y="555" as="targetPoint" />
          </mxGeometry>
        </mxCell>
      </root>
    </mxGraphModel>
  </diagram>
</mxfile>
